<?xml version="1.0" standalone="no"?>
<!DOCTYPE svg PUBLIC "-//W3C//DTD SVG 20010904//EN"
 "http://www.w3.org/TR/2001/REC-SVG-20010904/DTD/svg10.dtd">
<svg version="1.0" xmlns="http://www.w3.org/2000/svg"
 width="2000.000000pt" height="1500.000000pt" viewBox="0 0 2000.000000 1500.000000"
 preserveAspectRatio="xMidYMid meet">
<metadata>
Created by potrace 1.16, written by Peter Selinger 2001-2019
</metadata>
<g transform="translate(0.000000,1500.000000) scale(0.100000,-0.100000)"
fill="#000000" stroke="none">
<path d="M9670 12394 c-829 -72 -1501 -280 -2165 -672 -358 -212 -662 -449
-970 -757 -798 -796 -1276 -1790 -1410 -2930 -22 -187 -31 -683 -16 -885 80
-1054 463 -1997 1142 -2810 133 -160 429 -456 589 -589 811 -677 1759 -1062
2810 -1142 200 -15 696 -6 885 16 988 114 1860 488 2625 1125 159 132 455 428
589 590 673 806 1059 1752 1141 2794 22 276 11 691 -25 981 -104 832 -426
1633 -930 2310 -205 277 -524 616 -775 825 -768 639 -1617 1003 -2625 1126
-124 15 -748 28 -865 18z m635 -404 c421 -31 847 -120 1218 -255 1263 -458
2255 -1449 2711 -2710 249 -688 325 -1452 216 -2190 -240 -1628 -1367 -3005
-2923 -3569 -569 -206 -1223 -298 -1827 -256 -1358 95 -2581 780 -3372 1890
-169 236 -356 569 -471 842 -330 773 -436 1667 -296 2498 48 289 132 597 235
870 72 188 259 568 366 740 380 616 897 1129 1510 1501 190 115 544 287 748
363 401 149 834 244 1255 275 162 12 470 12 630 1z"/>
<path d="M8433 11020 c-93 -20 -178 -83 -221 -164 -21 -41 -26 -64 -26 -121 1
-147 105 -258 268 -285 150 -24 316 65 359 193 l14 42 269 0 c250 0 272 -1
306 -20 58 -31 364 -311 382 -349 11 -24 16 -63 16 -135 l0 -101 -157 0 c-177
0 -211 -7 -279 -53 -72 -48 -97 -105 -102 -227 l-4 -97 -107 -6 c-58 -3 -127
-13 -152 -22 -43 -15 -288 -203 -382 -293 -82 -78 -82 -79 -85 -424 -3 -297
-4 -308 -22 -308 -11 0 -43 -9 -70 -19 -166 -63 -243 -245 -165 -389 59 -108
160 -166 290 -166 67 0 90 4 142 28 105 48 171 134 180 236 7 75 -16 145 -67
203 -34 39 -110 86 -162 101 -17 5 -18 28 -18 303 0 276 1 300 19 329 24 39
328 290 376 310 22 9 69 14 130 14 l95 0 0 -318 c0 -369 4 -392 72 -459 73
-72 94 -77 336 -81 l212 -4 0 -257 0 -258 -42 -12 c-184 -54 -279 -242 -200
-397 26 -52 101 -120 160 -147 73 -33 198 -30 277 6 33 16 75 42 93 60 113
107 116 282 8 390 -38 38 -110 79 -158 91 l-28 6 0 260 0 260 263 0 c291 0
331 6 406 60 42 31 91 113 91 153 0 14 10 17 61 17 34 0 75 -7 93 -15 17 -8
105 -89 196 -180 153 -153 163 -165 148 -182 -91 -104 -78 -275 28 -373 70
-64 123 -84 229 -85 83 0 96 3 158 33 228 113 221 412 -12 514 -65 29 -173 35
-245 14 l-57 -17 -67 60 c-37 33 -114 107 -172 166 -127 129 -172 155 -282
162 l-78 6 0 153 0 154 98 0 c134 -1 152 -11 292 -160 141 -151 174 -170 301
-170 l85 0 23 -55 c29 -70 88 -130 159 -163 81 -38 202 -38 282 -1 119 55 183
147 182 261 0 35 -8 80 -17 101 -22 54 -90 124 -150 155 -45 24 -61 27 -155
27 -91 0 -111 -3 -148 -23 -70 -37 -128 -98 -153 -158 l-23 -54 -57 0 c-110 0
-113 2 -259 151 -74 76 -151 146 -170 156 -27 13 -65 18 -162 21 l-128 4 0
200 c0 237 -6 264 -71 330 -66 66 -114 78 -302 78 l-150 0 6 48 c6 44 13 53
114 149 148 141 153 143 344 143 l154 0 19 -52 c56 -158 276 -240 441 -164 69
31 127 83 158 141 31 57 31 183 0 240 -31 58 -89 110 -158 141 -165 76 -385
-6 -441 -164 l-19 -52 -175 0 c-149 0 -181 -3 -216 -19 -56 -25 -274 -223
-301 -273 -15 -27 -23 -58 -23 -90 l0 -48 -109 0 -109 0 -4 113 c-4 162 -11
172 -227 368 -97 88 -198 173 -226 187 l-50 27 -289 5 -289 5 -14 42 c-21 62
-91 135 -160 166 -65 29 -157 40 -220 27z m191 -120 c20 -12 49 -38 64 -58 24
-31 27 -44 27 -107 0 -63 -3 -76 -29 -109 -37 -49 -115 -86 -182 -86 -114 0
-214 89 -214 192 0 122 97 203 232 195 46 -3 77 -11 102 -27z m2668 -276 c76
-53 106 -121 88 -198 -19 -86 -94 -145 -193 -153 -58 -5 -73 -2 -120 21 -78
38 -112 90 -112 171 0 81 32 131 107 170 46 23 62 26 121 22 55 -4 77 -10 109
-33z m-715 -665 c69 -43 68 -31 68 -549 0 -447 -1 -466 -20 -498 -11 -19 -37
-42 -57 -53 -35 -18 -66 -19 -560 -19 -583 0 -568 -2 -616 69 l-23 35 3 477
c3 461 4 478 23 499 11 13 34 31 50 41 28 18 62 19 564 19 524 0 534 0 568
-21z m1344 -681 c90 -26 158 -123 146 -209 -22 -164 -261 -229 -379 -103 -29
31 -58 92 -58 121 0 135 151 234 291 191z m-342 -674 c85 -25 151 -109 151
-191 0 -37 -50 -120 -88 -146 -141 -98 -351 -6 -352 153 0 79 77 170 161 190
52 12 71 11 128 -6z m-2913 -68 c192 -89 136 -346 -79 -363 -87 -7 -162 25
-204 88 -39 60 -40 147 -1 206 57 86 182 117 284 69z m1345 -421 c159 -56 187
-244 51 -339 -34 -24 -56 -31 -106 -34 -76 -5 -126 9 -172 51 -47 40 -66 81
-66 137 0 141 149 235 293 185z"/>
<path d="M9600 9710 l0 -70 75 0 75 0 0 70 0 70 -75 0 -75 0 0 -70z"/>
<path d="M9930 9710 l0 -70 75 0 75 0 0 70 0 70 -75 0 -75 0 0 -70z"/>
<path d="M9930 9410 l0 -70 75 0 75 0 0 70 0 70 -75 0 -75 0 0 -70z"/>
<path d="M10260 9410 l0 -70 80 0 80 0 0 70 0 70 -80 0 -80 0 0 -70z"/>
<path d="M9600 9120 l0 -70 75 0 75 0 0 70 0 70 -75 0 -75 0 0 -70z"/>
<path d="M10260 9120 l0 -70 80 0 80 0 0 70 0 70 -80 0 -80 0 0 -70z"/>
<path d="M9620 7146 c-167 -47 -288 -177 -335 -361 -19 -76 -19 -250 0 -333
54 -230 232 -372 464 -372 149 0 254 43 349 144 66 69 109 160 128 268 17 93
13 218 -11 307 -45 173 -171 304 -330 346 -70 18 -202 18 -265 1z m231 -171
c25 -9 62 -29 82 -46 82 -68 128 -234 107 -386 -26 -190 -126 -293 -284 -293
-123 0 -207 56 -263 175 -26 56 -28 68 -28 195 0 125 2 139 26 190 43 92 101
147 179 171 43 13 134 10 181 -6z"/>
<path d="M6340 6620 l0 -530 96 0 96 0 -4 404 -4 404 64 -116 c35 -64 132
-225 215 -357 83 -132 164 -261 180 -287 l30 -48 108 0 109 0 0 530 0 530 -95
0 -96 0 3 -408 3 -409 -51 96 c-28 53 -139 236 -246 406 l-194 310 -107 3
-107 3 0 -531z"/>
<path d="M7440 6620 l0 -530 345 0 345 0 0 80 0 80 -250 0 -251 0 3 148 3 147
228 3 227 2 0 75 0 75 -230 0 -230 0 0 145 0 145 250 0 250 0 0 80 0 80 -345
0 -345 0 0 -530z"/>
<path d="M8290 7144 c0 -3 77 -120 171 -259 l171 -254 -186 -265 c-102 -145
-186 -267 -186 -270 0 -3 47 -6 105 -6 l104 0 99 143 c55 78 115 170 134 205
l35 63 33 -58 c18 -32 77 -124 132 -205 l98 -148 111 0 c85 0 109 3 103 13 -4
6 -85 125 -179 262 -94 138 -174 255 -178 262 -5 7 61 112 163 262 93 138 170
253 170 256 0 3 -47 5 -104 5 l-104 0 -95 -142 c-53 -79 -106 -164 -118 -190
-13 -27 -26 -48 -29 -48 -4 0 -16 19 -26 42 -10 24 -63 109 -116 190 l-97 148
-106 0 c-58 0 -105 -3 -105 -6z"/>
<path d="M10330 7038 c22 -62 107 -300 188 -528 l148 -415 122 -3 c67 -1 122
-1 122 1 0 3 72 211 161 463 89 253 172 489 184 527 l24 67 -104 0 -104 0
-100 -302 c-54 -167 -116 -364 -136 -438 -20 -74 -39 -142 -42 -150 -3 -8 -14
17 -24 55 -44 159 -93 314 -180 568 l-91 267 -104 0 -104 0 40 -112z"/>
<path d="M11420 6620 l0 -530 345 0 345 0 0 80 0 80 -250 0 -250 0 0 150 0
150 230 0 230 0 0 75 0 75 -230 0 -230 0 0 145 0 145 250 0 250 0 0 80 0 80
-345 0 -345 0 0 -530z"/>
<path d="M12273 7136 c3 -8 80 -125 172 -260 l165 -245 -156 -223 c-86 -123
-172 -244 -191 -270 l-35 -48 110 0 111 0 97 143 c54 78 114 170 134 203 l36
62 58 -97 c31 -53 91 -144 132 -203 l75 -108 110 0 110 0 -118 173 c-65 94
-149 218 -187 273 l-68 102 168 248 c93 137 171 252 172 256 2 4 -44 8 -102 8
l-106 0 -98 -147 c-53 -82 -106 -167 -116 -190 -11 -24 -22 -43 -25 -43 -4 0
-24 32 -45 71 -21 39 -74 125 -117 190 l-79 119 -106 0 c-88 0 -105 -2 -101
-14z"/>
</g>
</svg>
