<?xml version="1.0" standalone="no"?>
<!DOCTYPE svg PUBLIC "-//W3C//DTD SVG 20010904//EN"
 "http://www.w3.org/TR/2001/REC-SVG-20010904/DTD/svg10.dtd">
<svg version="1.0" xmlns="http://www.w3.org/2000/svg"
 width="300.000000pt" height="225.000000pt" viewBox="0 0 300.000000 225.000000"
 preserveAspectRatio="xMidYMid meet">
<metadata>
Created by potrace 1.10, written by Peter Selinger 2001-2011
</metadata>
<g transform="translate(0.000000,225.000000) scale(0.100000,-0.100000)"
fill="#000000" stroke="none">
<path d="M1345 1844 c-38 -8 -111 -34 -160 -58 -156 -74 -270 -187 -345 -341
-51 -105 -72 -196 -72 -320 -1 -288 158 -539 417 -661 208 -98 424 -98 630 0
156 74 271 188 345 341 52 109 72 198 72 320 0 288 -157 537 -417 661 -148 71
-311 91 -470 58z m298 -60 c40 -9 110 -34 157 -56 70 -33 100 -56 171 -127
139 -140 201 -286 201 -476 -1 -197 -69 -353 -217 -493 -251 -239 -656 -241
-906 -4 -152 143 -221 297 -221 497 0 198 69 354 220 497 156 146 384 209 595
162z m-652 -1141 c13 -16 12 -17 -3 -4 -10 7 -18 15 -18 17 0 8 8 3 21 -13z"/>
<path d="M1252 1647 c-24 -11 -30 -45 -10 -65 17 -17 67 -15 74 3 4 10 20 15
52 15 36 0 52 -6 74 -27 40 -39 37 -61 -9 -65 -33 -3 -38 -7 -41 -31 -2 -15
-9 -27 -15 -26 -25 3 -36 -2 -66 -27 -26 -22 -31 -33 -31 -69 0 -34 -6 -50
-26 -70 -24 -24 -25 -28 -11 -48 19 -29 65 -29 84 0 13 19 12 24 -6 42 -15 15
-21 34 -21 69 0 42 4 51 30 70 48 36 60 30 60 -31 0 -62 11 -77 57 -77 31 0
33 -2 33 -38 0 -26 -6 -41 -20 -50 -27 -17 -25 -48 5 -68 23 -15 27 -15 50 0
30 20 32 51 5 68 -14 9 -20 24 -20 50 l0 38 44 0 c35 0 48 5 60 22 l15 21 34
-26 c27 -21 33 -31 30 -52 -10 -50 46 -75 81 -36 14 15 15 24 7 39 -11 22 -45
37 -59 28 -5 -3 -22 8 -37 24 -16 17 -37 30 -47 30 -13 0 -18 8 -18 25 0 18 5
25 18 25 10 0 29 -11 42 -25 13 -14 31 -25 39 -25 9 0 22 -9 29 -20 15 -25 54
-26 75 -2 22 24 21 35 -1 55 -25 22 -48 21 -72 -3 -26 -26 -32 -25 -60 5 -13
14 -34 25 -46 25 -20 0 -23 6 -26 43 -3 41 -4 42 -42 45 l-38 3 23 25 c26 28
66 31 84 8 15 -21 65 -21 81 0 16 23 6 56 -20 65 -22 9 -66 -6 -66 -21 0 -4
-13 -8 -29 -8 -32 0 -81 -34 -81 -56 0 -8 -7 -14 -15 -14 -8 0 -15 8 -15 19 0
10 -18 35 -40 55 -33 30 -48 36 -84 36 -28 0 -46 5 -49 14 -7 19 -38 25 -65
13z m48 -22 c10 -12 10 -18 0 -30 -7 -8 -18 -15 -25 -15 -7 0 -18 7 -25 15
-10 12 -10 18 0 30 7 8 18 15 25 15 7 0 18 -7 25 -15z m400 -40 c10 -12 10
-18 0 -30 -7 -8 -18 -15 -25 -15 -7 0 -18 7 -25 15 -10 12 -10 18 0 30 7 8 18
15 25 15 7 0 18 -7 25 -15z m-111 -99 c7 -9 11 -41 9 -83 l-3 -68 -92 -3 -93
-3 0 79 c0 43 3 82 7 85 13 14 160 8 172 -7z m219 -118 c5 -26 -33 -42 -53
-22 -12 13 -13 19 -4 31 16 18 53 13 57 -9z m-50 -100 c5 -25 -31 -41 -54 -24
-16 12 -16 16 -4 30 17 21 54 17 58 -6z m-443 -13 c0 -13 -8 -21 -24 -23 -28
-4 -46 11 -37 33 9 25 61 16 61 -10z m200 -65 c0 -18 -6 -26 -23 -28 -13 -2
-25 3 -28 12 -10 26 4 48 28 44 17 -2 23 -10 23 -28z"/>
<path d="M1440 1455 c0 -8 5 -15 10 -15 6 0 10 7 10 15 0 8 -4 15 -10 15 -5 0
-10 -7 -10 -15z"/>
<path d="M1490 1455 c0 -8 5 -15 10 -15 6 0 10 7 10 15 0 8 -4 15 -10 15 -5 0
-10 -7 -10 -15z"/>
<path d="M1490 1410 c0 -5 5 -10 10 -10 6 0 10 5 10 10 0 6 -4 10 -10 10 -5 0
-10 -4 -10 -10z"/>
<path d="M1540 1410 c0 -5 5 -10 10 -10 6 0 10 5 10 10 0 6 -4 10 -10 10 -5 0
-10 -4 -10 -10z"/>
<path d="M1440 1365 c0 -9 6 -12 15 -9 8 4 15 10 15 15 0 5 -7 9 -15 9 -8 0
-15 -7 -15 -15z"/>
<path d="M1540 1364 c0 -8 5 -12 10 -9 6 3 10 10 10 16 0 5 -4 9 -10 9 -5 0
-10 -7 -10 -16z"/>
<path d="M1359 1073 c-9 -2 -22 -15 -29 -28 -17 -31 -24 -31 -38 0 -7 15 -20
25 -33 25 -19 0 -19 -2 9 -38 l30 -38 -29 -34 c-33 -40 -35 -50 -14 -50 9 0
24 13 33 30 9 16 19 30 22 30 3 0 14 -13 23 -30 10 -16 25 -30 33 -30 20 0 18
8 -11 46 -14 18 -25 36 -25 40 0 4 12 22 26 41 28 37 28 41 3 36z"/>
<path d="M1840 1073 c0 -4 11 -21 25 -39 14 -18 25 -36 25 -39 0 -3 -11 -21
-25 -39 -29 -38 -31 -46 -11 -46 8 0 23 14 33 30 l18 31 26 -32 c38 -47 57
-33 20 16 l-30 40 25 32 c28 37 29 43 10 43 -7 0 -22 -12 -31 -27 l-17 -26
-16 26 c-14 23 -52 44 -52 30z"/>
<path d="M950 990 c0 -67 3 -80 16 -80 14 0 16 10 12 65 -2 36 -3 65 -2 65 1
0 19 -30 39 -66 50 -89 66 -84 68 19 2 62 -1 77 -13 77 -12 0 -14 -12 -12 -62
l3 -63 -38 63 c-23 39 -44 62 -55 62 -16 0 -18 -10 -18 -80z"/>
<path d="M1118 990 l4 -80 49 0 c37 0 49 4 49 15 0 11 -11 15 -40 15 -33 0
-40 3 -40 20 0 17 7 20 41 20 28 0 39 4 36 13 -2 6 -19 12 -38 12 -27 1 -35 5
-37 23 -3 20 1 22 37 22 23 0 41 5 41 10 0 6 -24 10 -52 10 l-53 0 3 -80z"/>
<path d="M1410 1050 c-60 -60 16 -170 90 -130 23 12 43 70 34 96 -20 55 -85
73 -124 34z m86 -26 c22 -33 9 -78 -24 -82 -32 -5 -52 15 -52 52 0 58 46 76
76 30z"/>
<path d="M1572 990 c40 -104 54 -105 90 -3 15 42 26 79 23 81 -14 14 -33 -13
-45 -62 -7 -32 -16 -59 -20 -61 -3 -2 -14 25 -24 61 -14 48 -23 64 -36 64 -16
0 -15 -8 12 -80z"/>
<path d="M1710 990 l0 -80 55 0 c42 0 55 3 55 15 0 11 -11 15 -40 15 -33 0
-40 3 -40 20 0 16 7 20 35 20 26 0 35 4 35 16 0 13 -7 15 -35 11 -32 -5 -35
-4 -35 19 0 21 4 24 40 24 22 0 40 5 40 10 0 6 -25 10 -55 10 l-55 0 0 -80z"/>
<path d="M1270 835 c0 -6 7 -12 15 -12 8 0 15 4 15 9 0 5 5 6 11 2 18 -11 129
-13 135 -2 4 6 10 5 15 -3 7 -11 9 -11 9 3 0 14 -13 16 -100 15 -69 0 -100 -4
-100 -12z"/>
<path d="M1480 836 c0 -7 7 -13 15 -13 8 0 15 4 15 9 0 5 5 6 10 3 22 -14 80
-15 80 -2 0 9 -18 13 -60 14 -42 1 -60 -2 -60 -11z"/>
<path d="M1610 834 c0 -10 9 -13 32 -9 17 3 35 8 39 10 4 3 10 -1 12 -7 3 -8
6 -6 6 4 1 14 -8 17 -44 16 -31 0 -45 -5 -45 -14z"/>
</g>
</svg>
